<svg version="1.2" xmlns="http://www.w3.org/2000/svg" viewBox="0 0 540 485" width="540" height="485"><defs><filter x="-50%" y="-50%" width="200%" height="200%" id="f1" ><feDropShadow dx="-6.123233995736766e-16" dy="10" stdDeviation="10" flood-color="#505662" flood-opacity="0"/></filter><filter x="-50%" y="-50%" width="200%" height="200%" id="f2" ><feDropShadow dx="-6.123233995736766e-16" dy="10" stdDeviation="10" flood-color="#505662" flood-opacity="0"/></filter><filter x="-50%" y="-50%" width="200%" height="200%" id="f3" ><feDropShadow dx="-6.123233995736766e-16" dy="10" stdDeviation="10" flood-color="#505662" flood-opacity="0"/></filter><filter x="-50%" y="-50%" width="200%" height="200%" id="f4" ><feDropShadow dx="-6.123233995736766e-16" dy="10" stdDeviation="10" flood-color="#505662" flood-opacity="0"/></filter><clipPath clipPathUnits="userSpaceOnUse" id="cp1"><path d="m410.34 198.53c-44.82 0-81.04-36.22-81.04-81.03 0-44.81 36.22-81.03 81.04-81.03 44.81 0 81.04 36.22 81.04 81.03 0 44.81-36.23 81.03-81.04 81.03z"/></clipPath><clipPath clipPathUnits="userSpaceOnUse" id="cp2"><path d="m410.34 198.53c-44.82 0-81.04-36.22-81.04-81.03 0-44.81 36.22-81.03 81.04-81.03 44.81 0 81.04 36.22 81.04 81.03 0 44.81-36.23 81.03-81.04 81.03z"/></clipPath><filter x="-50%" y="-50%" width="200%" height="200%" id="f5" ><feDropShadow dx="-6.123233995736766e-16" dy="10" stdDeviation="10" flood-color="#505662" flood-opacity="0"/></filter><filter x="-50%" y="-50%" width="200%" height="200%" id="f6" ><feDropShadow dx="-6.123233995736766e-16" dy="10" stdDeviation="10" flood-color="#505662" flood-opacity="0"/></filter></defs><style>.a{filter:url(#f1)}.b{filter:url(#f2);fill:#fff}.c{fill:#fafafa;stroke:#e5e9ea}.d{fill:#e5e9ea}.e{fill:#242d52}.f{fill:#f3603c}.g{filter:url(#f3)}.h{filter:url(#f4);fill:#fff}.i{fill:none;stroke:#fff;stroke-width:40}.j{fill:none;stroke:#f3603c;stroke-width:80;stroke-dasharray:502}.k{fill:none;stroke:#242d52;stroke-width:80;stroke-dasharray:340}.l{filter:url(#f5)}.m{filter:url(#f6);fill:#fff}.n{fill:#fff}.o{fill:#fafafa}.p{fill:#1e272e}.q{fill:#343a40}</style><path class="a" d="m4 0h252c2.2 0 4 1.8 4 4v227c0 2.2-1.8 4-4 4h-252c-2.2 0-4-1.8-4-4v-227c0-2.2 1.8-4 4-4z"/><path class="b" d="m4 0h252c2.2 0 4 1.8 4 4v227c0 2.2-1.8 4-4 4h-252c-2.2 0-4-1.8-4-4v-227c0-2.2 1.8-4 4-4z"/><path fill-rule="evenodd" class="c" d="m16.2 16.2h230.3v202.6h-230.3z"/><path fill-rule="evenodd" class="d" d="m16.2 117.5h230.3v1h-230.3zm0 19h230.3v1h-230.3zm0 19h230.3v1h-230.3zm0 19h230.3v1h-230.3zm0-133h230.3v1h-230.3zm0-19h230.3v1h-230.3zm0 38h230.3v1h-230.3zm0 19h230.3v1h-230.3zm0 19h230.3v1h-230.3zm0 95h230.3v1h-230.3zm0 19h230.3v1h-230.3z"/><path fill-rule="evenodd" class="e" d="m22.3 117.5h31.1v45.6q-0.1 1-0.4 2-0.4 0.9-1.1 1.6-0.7 0.7-1.6 1.1-1 0.3-1.9 0.3h-21.1q-1 0-1.9-0.3-0.9-0.4-1.6-1.1-0.8-0.7-1.1-1.6-0.4-1-0.4-2z"/><path fill-rule="evenodd" class="f" d="m22.3 150.5q0 1 0.4 1.9 0.3 0.9 1.1 1.6 0.7 0.7 1.6 1.1 0.9 0.4 1.9 0.4h21.1q0.9 0 1.9-0.4 0.9-0.4 1.6-1.1 0.7-0.7 1.1-1.6 0.3-0.9 0.4-1.9v-33h-31.1zm47.3-33.3h31v-34.5q0-1-0.4-1.9-0.3-1-1-1.7-0.7-0.7-1.7-1-0.9-0.4-1.9-0.4h-21q-1 0-2 0.4-0.9 0.3-1.6 1-0.7 0.7-1.1 1.7-0.3 0.9-0.3 1.9z"/><path fill-rule="evenodd" class="e" d="m69.6 169.2q0 1 0.3 1.9 0.4 1 1.1 1.7 0.7 0.7 1.6 1 1 0.4 2 0.4h21q1 0 1.9-0.4 1-0.3 1.7-1 0.7-0.7 1-1.7 0.4-0.9 0.4-1.9v-52h-31zm92.5-51.7h31v-71.3q0-1-0.3-1.9-0.4-0.9-1.1-1.6-0.7-0.7-1.6-1.1-1-0.4-2-0.4h-21q-1 0-1.9 0.4-1 0.4-1.7 1.1-0.7 0.7-1 1.6-0.4 0.9-0.4 1.9z"/><path fill-rule="evenodd" class="f" d="m162.1 117.5h31v-52.2q0-1-0.3-1.9-0.4-1-1.1-1.7-0.7-0.7-1.6-1-1-0.4-2-0.4h-21q-1 0-1.9 0.4-1 0.3-1.7 1-0.7 0.7-1 1.7-0.4 0.9-0.4 1.9z"/><path fill-rule="evenodd" class="e" d="m209.4 117.5h31v58.5q0 1-0.4 1.9-0.3 0.9-1 1.6-0.8 0.7-1.7 1.1-0.9 0.4-1.9 0.4h-21.1q-0.9 0-1.9-0.4-0.9-0.4-1.6-1.1-0.7-0.7-1.1-1.6-0.3-0.9-0.4-1.9c0 0 0-58.5 0.1-58.5z"/><path fill-rule="evenodd" class="f" d="m209.4 117.5h31v45.8q0 1-0.4 1.9-0.3 0.9-1 1.6-0.8 0.7-1.7 1.1-0.9 0.4-1.9 0.4h-21.1q-0.9 0-1.9-0.4-0.9-0.4-1.6-1.1-0.7-0.7-1.1-1.6-0.3-0.9-0.4-1.9c0 0 0-45.8 0.1-45.8z"/><path fill-rule="evenodd" class="f" d="m115.5 117.5h31v90.2q0 1-0.3 1.9-0.4 0.9-1.1 1.7-0.7 0.7-1.6 1-1 0.4-2 0.4h-21q-1 0-1.9-0.4-1-0.3-1.7-1-0.7-0.8-1-1.7-0.4-0.9-0.4-1.9c0 0 0-90.2 0-90.2z"/><path fill-rule="evenodd" class="e" d="m115.5 117.5h31v33.1q0 1-0.3 1.9-0.4 0.9-1.1 1.6-0.7 0.7-1.6 1.1-1 0.4-2 0.4h-21q-1 0-1.9-0.4-1-0.4-1.7-1.1-0.7-0.7-1-1.6-0.4-0.9-0.4-1.9c0 0 0-33.1 0-33.1z"/><path class="g" d="m284 0h252c2.2 0 4 1.8 4 4v227c0 2.2-1.8 4-4 4h-252c-2.2 0-4-1.8-4-4v-227c0-2.2 1.8-4 4-4z"/><path class="h" d="m284 0h252c2.2 0 4 1.8 4 4v227c0 2.2-1.8 4-4 4h-252c-2.2 0-4-1.8-4-4v-227c0-2.2 1.8-4 4-4z"/><path class="i" d="m410.3 178.5c-33.7 0-61-27.2-61-61 0-33.8 27.3-61 61-61 33.8 0 61.1 27.2 61.1 61 0 33.8-27.3 61-61.1 61z"/><g clip-path="url(#cp1)"><path class="j" d="m410.3 198.5c-44.8 0-81-36.2-81-81 0-44.8 36.2-81 81-81 44.9 0 81.1 36.2 81.1 81 0 44.8-36.2 81-81.1 81z"/></g><g clip-path="url(#cp2)"><path class="k" d="m410.3 198.5c-44.8 0-81-36.2-81-81 0-44.8 36.2-81 81-81 44.9 0 81.1 36.2 81.1 81 0 44.8-36.2 81-81.1 81z"/></g><path class="l" d="m144 250h252c2.2 0 4 1.8 4 4v227c0 2.2-1.8 4-4 4h-252c-2.2 0-4-1.8-4-4v-227c0-2.2 1.8-4 4-4z"/><path class="m" d="m144 250h252c2.2 0 4 1.8 4 4v227c0 2.2-1.8 4-4 4h-252c-2.2 0-4-1.8-4-4v-227c0-2.2 1.8-4 4-4z"/><path class="f" d="m160.2 390.5h98c2.2 0 4 1.8 4 4v70.3c0 2.2-1.8 4-4 4h-98c-2.2 0-4-1.8-4-4v-70.3c0-2.2 1.8-4 4-4z"/><path fill-rule="evenodd" class="n" d="m177.5 449.9v-3.9h-3.9v-1.8h3.9v-3.9h1.8v3.9h3.8v1.8h-3.8v3.9c0 0-1.8 0-1.8 0zm11.7 2v-11.7l-3.3 3v-2.4l3.5-3h2.1v14.1c0 0-2.3 0-2.3 0zm7.8-0.2q-0.4-0.4-0.4-1 0-0.1 0-0.2 0-0.2 0.1-0.3 0-0.1 0.1-0.3 0.1-0.1 0.2-0.2 0.4-0.4 1-0.4 0.1 0 0.2 0.1 0.2 0 0.3 0 0.1 0.1 0.2 0.2 0.1 0 0.2 0.1 0.4 0.4 0.4 1 0 0.6-0.4 1-0.4 0.4-0.9 0.4-0.6 0-1-0.4zm7.1-0.1q-0.2-0.1-0.5-0.3-0.2-0.1-0.5-0.3-0.2-0.2-0.4-0.5-0.2-0.2-0.3-0.4-0.7-1-0.7-2.4 0-0.3 0-0.7l2.3-0.2q-0.1 0.5-0.1 0.7 0 1.3 0.8 1.9 0.7 0.6 1.8 0.6 1.2 0 1.9-0.7 0.7-0.8 0.7-1.9 0-2.7-3.3-2.7h-3.6l0.7-6.9h7.9v2.1h-5.9l-0.3 2.9h1.5q2.7 0 4 1.2 1.3 1.1 1.3 3.3 0 2.1-1.3 3.5-1.4 1.3-3.6 1.3-1.3 0-2.4-0.5zm9.5-8.7q-1-0.9-1-2.2 0-0.3 0.1-0.6 0.1-0.3 0.2-0.6 0.1-0.3 0.3-0.5 0.1-0.3 0.4-0.5 0.9-0.9 2.1-0.9 0.3 0 0.6 0 0.3 0.1 0.6 0.2 0.3 0.1 0.6 0.3 0.2 0.2 0.4 0.4 0.9 0.9 0.9 2.2 0 1.3-0.9 2.2-0.2 0.2-0.4 0.4-0.3 0.2-0.6 0.3-0.3 0.1-0.6 0.2-0.3 0-0.6 0-1.2 0-2.1-0.9zm1.3 9l7.4-14.1h2l-7.5 14.1zm2-10.1q0.4-0.5 0.4-1.1 0-0.6-0.4-1.1-0.5-0.4-1.1-0.4-0.1 0-0.3 0-0.1 0-0.3 0.1-0.1 0-0.3 0.1-0.1 0.1-0.2 0.2-0.4 0.5-0.4 1.1 0 0.1 0 0.3 0 0.1 0.1 0.3 0 0.1 0.1 0.3 0.1 0.1 0.2 0.2 0.5 0.4 1.1 0.4 0.7 0 1.1-0.4zm4.5 9.4q-0.9-0.9-0.9-2.2 0-0.3 0-0.6 0.1-0.3 0.2-0.6 0.1-0.3 0.3-0.5 0.2-0.3 0.4-0.5 0.9-0.9 2.2-0.9 0.3 0 0.6 0 0.3 0.1 0.6 0.2 0.2 0.1 0.5 0.3 0.2 0.2 0.5 0.4 0.9 0.9 0.9 2.2 0 0.3-0.1 0.6-0.1 0.3-0.2 0.6-0.1 0.2-0.3 0.5-0.1 0.3-0.3 0.5-0.9 0.9-2.2 0.9-1.3 0-2.2-0.9zm3.3-1.1q0.4-0.5 0.4-1.1 0-0.7-0.4-1.1-0.5-0.5-1.1-0.5-0.2 0-0.3 0.1-0.2 0-0.3 0-0.1 0.1-0.3 0.2-0.1 0.1-0.2 0.2-0.5 0.4-0.5 1.1 0 0.1 0.1 0.3 0 0.1 0.1 0.3 0 0.1 0.1 0.2 0.1 0.2 0.2 0.3 0.4 0.4 1.1 0.4 0.6 0 1.1-0.4z"/><path class="o" d="m281.8 390.5h98c2.2 0 4 1.8 4 4v70.3c0 2.2-1.8 4-4 4h-98c-2.2 0-4-1.8-4-4v-70.3c0-2.2 1.8-4 4-4z"/><path fill-rule="evenodd" class="p" d="m297.3 451.6q-0.2-0.1-0.5-0.3-0.2-0.1-0.5-0.3-0.2-0.2-0.4-0.4-0.2-0.3-0.3-0.5-0.7-1-0.7-2.3 0-1.3 0.7-2.2 0.6-1 1.7-1.5-0.8-0.4-1.2-1.2-0.5-0.7-0.5-1.6 0-1.7 1.2-2.7 1.2-1 3.1-1 1.8 0 3 1 1.2 1.1 1.2 2.7 0 0.2 0 0.4 0 0.2-0.1 0.4-0.1 0.2-0.2 0.4 0 0.2-0.2 0.4-0.4 0.8-1.2 1.2 0.3 0.1 0.5 0.3 0.3 0.1 0.5 0.3 0.2 0.2 0.4 0.4 0.2 0.2 0.4 0.5 0.6 0.9 0.6 2.2 0 1.3-0.6 2.3-0.2 0.2-0.4 0.5-0.2 0.2-0.4 0.4-0.2 0.2-0.5 0.3-0.2 0.2-0.5 0.3-1.1 0.5-2.5 0.5-1.4 0-2.6-0.5zm3-8.2q0.2 0 0.4-0.1 0.2-0.1 0.4-0.2 0.1-0.1 0.3-0.3 0.6-0.6 0.6-1.4 0-0.9-0.6-1.4-0.6-0.6-1.5-0.6-0.9 0-1.6 0.6-0.6 0.5-0.6 1.4 0 0.2 0 0.4 0.1 0.2 0.2 0.4 0 0.2 0.2 0.3 0.1 0.2 0.2 0.3 0.7 0.6 1.6 0.6 0.2 0 0.4 0zm1.5 6q0.7-0.7 0.7-1.9 0-1.1-0.7-1.8-0.8-0.6-1.9-0.6-1.2 0-1.9 0.6-0.8 0.7-0.8 1.8 0 1.2 0.7 1.9 0.8 0.6 2 0.6 1.1 0 1.9-0.6zm6.6 2.2q-0.3-0.1-0.5-0.3-0.3-0.1-0.5-0.3-0.2-0.2-0.4-0.4-0.2-0.3-0.4-0.5-0.6-1-0.6-2.3 0-1.3 0.6-2.2 0.7-1 1.8-1.5-0.8-0.4-1.3-1.2-0.4-0.7-0.4-1.6 0-1.7 1.2-2.7 1.2-1 3-1 1.9 0 3.1 1 1.2 1.1 1.2 2.7 0 0.2 0 0.4-0.1 0.2-0.1 0.4-0.1 0.2-0.2 0.4-0.1 0.2-0.2 0.4-0.4 0.8-1.2 1.2 0.2 0.2 0.5 0.3 0.2 0.2 0.5 0.3 0.2 0.2 0.4 0.4 0.2 0.2 0.3 0.5 0.7 0.9 0.7 2.2 0 1.3-0.7 2.3-0.1 0.2-0.3 0.5-0.2 0.2-0.4 0.4-0.3 0.2-0.5 0.3-0.3 0.2-0.5 0.3-1.1 0.5-2.6 0.5-1.4 0-2.5-0.5zm3-8.2q0.2 0 0.4-0.1 0.2-0.1 0.3-0.2 0.2-0.1 0.4-0.3 0.6-0.6 0.6-1.4 0-0.9-0.6-1.4-0.7-0.6-1.6-0.6-0.9 0-1.5 0.6-0.6 0.5-0.6 1.4 0 0.2 0 0.4 0.1 0.2 0.1 0.4 0.1 0.2 0.2 0.3 0.2 0.2 0.3 0.3 0.6 0.6 1.5 0.6 0.3 0 0.5 0zm1.4 6q0.8-0.7 0.8-1.9 0-1.1-0.8-1.8-0.7-0.6-1.9-0.6-1.1 0-1.9 0.7-0.7 0.6-0.7 1.7 0 1.2 0.7 1.9 0.8 0.6 1.9 0.6 1.2 0 1.9-0.6zm5.6 2.3q-0.4-0.4-0.4-1 0-0.1 0-0.2 0-0.2 0.1-0.3 0-0.1 0.1-0.3 0.1-0.1 0.2-0.2 0.4-0.4 1-0.4 0.1 0 0.3 0.1 0.1 0 0.2 0 0.1 0.1 0.3 0.2 0.1 0 0.2 0.1 0.4 0.5 0.4 1 0 0.6-0.4 1-0.4 0.4-1 0.4-0.6 0-1-0.4zm4.6 0.2v-1.7l5.6-5.8q1.4-1.5 1.4-2.8 0-1-0.6-1.6-0.6-0.5-1.6-0.5-1.1 0-1.7 0.6-0.6 0.6-0.6 2v1l-2.3-0.2v-0.8q0-2.2 1.2-3.3 1.3-1.2 3.4-1.2 1.9 0 3.2 1.1 1.3 1 1.3 2.9 0 1.1-0.5 2-0.5 0.9-1.5 2l-4.1 4.3h6.5v2zm17.2 0v-2.7h-6.7v-2.1l5.5-9.3h3.4v9.3h2v2.1h-2v2.7c0 0-2.2 0-2.2 0zm0-12.6l-4.5 7.8h4.5zm5.9 3.6q-0.9-0.9-0.9-2.2 0-0.3 0-0.6 0.1-0.3 0.2-0.6 0.1-0.2 0.3-0.5 0.2-0.2 0.4-0.5 0.9-0.9 2.2-0.9 0.3 0 0.6 0.1 0.3 0 0.6 0.2 0.3 0.1 0.5 0.2 0.3 0.2 0.5 0.4 0.9 1 0.9 2.2 0 1.3-0.9 2.2-0.2 0.3-0.5 0.4-0.2 0.2-0.5 0.3-0.3 0.1-0.6 0.2-0.3 0-0.6 0-1.3 0-2.2-0.9zm1.3 9.1l7.5-14.2h1.9l-7.4 14.2zm1.9-10.2q0.5-0.4 0.5-1.1 0-0.6-0.5-1-0.4-0.5-1.1-0.5-0.1 0-0.3 0-0.1 0.1-0.2 0.1-0.2 0.1-0.3 0.2-0.1 0-0.2 0.1-0.5 0.5-0.5 1.1 0 0.2 0 0.3 0.1 0.2 0.1 0.3 0.1 0.2 0.2 0.3 0 0.1 0.2 0.2 0.4 0.5 1 0.5 0.7 0 1.1-0.5zm4.5 9.4q-0.9-0.9-0.9-2.2 0-0.3 0.1-0.6 0-0.3 0.2-0.6 0.1-0.3 0.2-0.5 0.2-0.3 0.4-0.5 0.9-0.9 2.2-0.9 0.3 0 0.6 0.1 0.3 0 0.6 0.1 0.3 0.2 0.5 0.3 0.3 0.2 0.5 0.4 0.9 0.9 0.9 2.2 0 0.3-0.1 0.6 0 0.3-0.1 0.6-0.1 0.3-0.3 0.5-0.2 0.3-0.4 0.5-0.9 0.9-2.2 0.9-1.3 0-2.2-0.9zm3.3-1.1q0.5-0.4 0.5-1.1 0-0.6-0.5-1.1-0.4-0.4-1.1-0.4-0.1 0-0.3 0-0.1 0-0.3 0.1-0.1 0-0.2 0.1-0.2 0.1-0.3 0.2-0.4 0.5-0.4 1.1 0 0.2 0 0.3 0 0.2 0.1 0.3 0.1 0.1 0.1 0.3 0.1 0.1 0.2 0.2 0.5 0.5 1.1 0.5 0.7 0 1.1-0.5z"/><path class="o" d="m160.2 266.2h219.6c2.2 0 4 1.8 4 4v100.1c0 2.2-1.8 4-4 4h-219.6c-2.2 0-4-1.8-4-4v-100.1c0-2.2 1.8-4 4-4z"/><path fill-rule="evenodd" class="q" d="m179.6 349.9q-2.4-1.1-3.8-3.2-1.4-2.1-1.4-4.8 0-2.8 1.4-4.8 1.4-2 3.8-3.1-1.7-1-2.7-2.6-1-1.5-1-3.5 0-3.4 2.6-5.6 2.5-2.2 6.5-2.2 3.9 0 6.5 2.2 2.5 2.2 2.5 5.6 0 2-0.9 3.5-1 1.6-2.7 2.6 2.4 1.1 3.8 3.1 1.4 2 1.4 4.8 0 2.7-1.4 4.8-1.4 2.1-3.8 3.2-2.4 1.1-5.4 1.1-3 0-5.4-1.1zm8.6-18.6q1.4-1.3 1.4-3.1 0-1.9-1.4-3.1-1.3-1.2-3.2-1.2-1.9 0-3.3 1.2-1.3 1.2-1.3 3.1 0 1.8 1.3 3.1 1.4 1.2 3.3 1.2 1.9 0 3.2-1.2zm0.8 13.9q1.7-1.5 1.7-3.9 0-2.4-1.7-3.8-1.6-1.5-4-1.5-2.5 0-4.1 1.5-1.6 1.4-1.6 3.8 0 2.4 1.6 3.9 1.6 1.4 4.1 1.4 2.4 0 4-1.4zm12.1 5.4l8-10.3q-0.9 0.2-1.9 0.2-0.6 0-1.2-0.1-0.6-0.1-1.2-0.2-0.6-0.2-1.2-0.4-0.5-0.2-1.1-0.5-2.1-1.2-3.5-3.5-1.4-2.3-1.4-5.2-0.1-3 1.4-5.4 1.5-2.5 3.9-3.8 2.5-1.3 5.4-1.3 3 0 5.5 1.4 0.6 0.3 1.1 0.7 0.6 0.4 1.1 0.8 0.5 0.5 0.9 1 0.4 0.6 0.8 1.1 1.4 2.4 1.4 5.4 0 3.7-2.6 7.2l-9.8 12.9zm11.8-15.5q1.7-1.8 1.7-4.4 0-2.8-1.7-4.5-1.7-1.6-4.4-1.6-2.7 0-4.4 1.7-1.8 1.7-1.8 4.4 0.1 2.8 1.8 4.5 1.7 1.7 4.4 1.7 2.7 0 4.4-1.8zm11.2 15.1q-0.9-0.9-0.9-2.1 0-1.2 0.9-2.1 0.9-0.9 2.1-0.9 0.3 0 0.5 0.1 0.3 0 0.6 0.1 0.3 0.1 0.5 0.3 0.3 0.2 0.5 0.4 0.8 0.9 0.8 2.1 0 0.3 0 0.6-0.1 0.3-0.2 0.5-0.1 0.3-0.3 0.5-0.1 0.3-0.3 0.5-0.9 0.8-2.1 0.8-1.2 0-2.1-0.8zm16.3 0.4c0 0-5.5 0-5.5 0l14.2-25.7h-15.5v-4.4h20.9v3.9zm29.6 0v-5.9h-14.2v-4.4l11.6-19.8h7.4v19.8h4.2v4.4h-4.2v5.9zm0-27l-9.4 16.7h9.4zm12.4 7.8q-1.9-2-1.9-4.7 0-2.8 2-4.7 1.9-1.9 4.6-1.9 2.8 0 4.7 1.9 1.9 1.9 1.9 4.7 0 2.7-1.9 4.7-1.9 1.9-4.7 1.9-2.7 0-4.7-1.9zm2.9 19.2l15.8-30.1h4.2l-15.9 30.1zm4.2-21.6q1-1 1-2.3 0-1.4-1-2.3-0.9-1-2.3-1-0.3 0-0.6 0.1-0.4 0-0.7 0.2-0.3 0.1-0.5 0.3-0.3 0.1-0.5 0.4-1 0.9-1 2.3 0 0.3 0.1 0.6 0 0.3 0.1 0.6 0.2 0.3 0.4 0.6 0.1 0.3 0.4 0.5 0.9 1 2.3 1 1.4 0 2.3-1zm9.6 20q-1.9-1.9-1.9-4.6 0-2.8 1.9-4.7 2-2 4.7-1.9 2.7-0.1 4.6 1.9 1.9 1.9 1.9 4.7 0 2.7-1.9 4.6-1.9 2-4.6 2-2.8 0-4.7-2zm7-2.3q1-1 1-2.3 0-1.4-1-2.4-1-0.9-2.3-0.9-1.4 0-2.3 0.9-1 1-1 2.4 0 0.3 0.1 0.6 0 0.3 0.1 0.6 0.2 0.3 0.4 0.6 0.1 0.2 0.4 0.5 0.9 0.9 2.3 0.9 1.4 0 2.3-0.9z"/></svg>